<svg width="25" height="20" viewBox="0 0 25 20" fill="none" xmlns="http://www.w3.org/2000/svg">
<path d="M8.57141 10.4839C8.57141 11.5533 8.98296 12.5789 9.71552 13.3351C10.4481 14.0913 11.4417 14.5161 12.4777 14.5161C13.5137 14.5161 14.5072 14.0913 15.2398 13.3351C15.9724 12.5789 16.3839 11.5533 16.3839 10.4839C16.3839 9.41444 15.9724 8.38882 15.2398 7.63262C14.5072 6.87643 13.5137 6.4516 12.4777 6.4516C11.4417 6.4516 10.4481 6.87643 9.71552 7.63262C8.98296 8.38882 8.57141 9.41444 8.57141 10.4839Z" fill="white"/>
<path d="M21.875 3.46773C22.7038 3.46773 23.4987 3.8076 24.0847 4.41255C24.6708 5.01751 25 5.838 25 6.69354V16.371C25 17.2265 24.6708 18.047 24.0847 18.6519C23.4987 19.2569 22.7038 19.5968 21.875 19.5968H3.125C2.2962 19.5968 1.50134 19.2569 0.915293 18.6519C0.329241 18.047 0 17.2265 0 16.371V6.69354C0 5.838 0.329241 5.01751 0.915293 4.41255C1.50134 3.8076 2.2962 3.46773 3.125 3.46773H4.95625C5.78498 3.46755 6.57971 3.12757 7.16563 2.52257L8.45937 1.18709C9.04529 0.582091 9.84002 0.242111 10.6687 0.241928H14.3313C15.16 0.242111 15.9547 0.582091 16.5406 1.18709L17.8344 2.52257C18.4203 3.12757 19.215 3.46755 20.0438 3.46773H21.875ZM21.0938 6.69354C21.301 6.69354 21.4997 6.60858 21.6462 6.45734C21.7927 6.3061 21.875 6.10097 21.875 5.88709C21.875 5.67321 21.7927 5.46808 21.6462 5.31684C21.4997 5.1656 21.301 5.08064 21.0938 5.08064C20.8865 5.08064 20.6878 5.1656 20.5413 5.31684C20.3948 5.46808 20.3125 5.67321 20.3125 5.88709C20.3125 6.10097 20.3948 6.3061 20.5413 6.45734C20.6878 6.60858 20.8865 6.69354 21.0938 6.69354ZM7.03125 10.7258C7.03125 12.223 7.60742 13.6589 8.63301 14.7175C9.6586 15.7762 11.0496 16.371 12.5 16.371C13.9504 16.371 15.3414 15.7762 16.367 14.7175C17.3926 13.6589 17.9688 12.223 17.9688 10.7258C17.9688 9.22861 17.3926 7.79274 16.367 6.73407C15.3414 5.67539 13.9504 5.08064 12.5 5.08064C11.0496 5.08064 9.6586 5.67539 8.63301 6.73407C7.60742 7.79274 7.03125 9.22861 7.03125 10.7258Z" fill="white"/>
</svg>
