<svg width="20" height="26" viewBox="0 0 20 26" fill="none" xmlns="http://www.w3.org/2000/svg">
<path d="M10 0C8.67392 0 7.40215 0.668266 6.46447 1.85779C5.52678 3.04731 5 4.66064 5 6.34288C5 8.02512 5.52678 9.63845 6.46447 10.828C7.40215 12.0175 8.67392 12.6858 10 12.6858C11.3261 12.6858 12.5979 12.0175 13.5355 10.828C14.4732 9.63845 15 8.02512 15 6.34288C15 4.66064 14.4732 3.04731 13.5355 1.85779C12.5979 0.668266 11.3261 0 10 0ZM10 15.8572C4.475 15.8572 0 18.6956 0 22.2001V25.3715H20V22.2001C20 18.6956 15.525 15.8572 10 15.8572Z" fill="#FFFBFB"/>
</svg>
