<svg width="25" height="26" viewBox="0 0 25 26" fill="none" xmlns="http://www.w3.org/2000/svg">
<path d="M1.24976 13.9545H2.49979V22.8344C2.49979 24.2337 3.62106 25.3716 4.99984 25.3716H20.0002C21.3789 25.3716 22.5002 24.2337 22.5002 22.8344V13.9545H23.7502C23.9974 13.9544 24.2391 13.88 24.4446 13.7406C24.6501 13.6012 24.8103 13.4031 24.9049 13.1713C24.9995 12.9396 25.0242 12.6845 24.976 12.4385C24.9278 12.1925 24.8088 11.9664 24.634 11.789L13.3838 0.371945C13.2678 0.254037 13.13 0.160496 12.9784 0.0966733C12.8267 0.0328509 12.6642 0 12.5 0C12.3358 0 12.1733 0.0328509 12.0216 0.0966733C11.87 0.160496 11.7322 0.254037 11.6162 0.371945L0.365991 11.789C0.191226 11.9664 0.0722153 12.1925 0.0240049 12.4385C-0.0242056 12.6845 0.000548698 12.9396 0.0951383 13.1713C0.189728 13.4031 0.349906 13.6012 0.555422 13.7406C0.760939 13.88 1.00257 13.9544 1.24976 13.9545ZM9.99995 22.8344V16.4916H15.0001V22.8344H9.99995ZM12.5 3.06257L20.0002 10.674V16.4916L20.0014 22.8344H17.5001V16.4916C17.5001 15.0924 16.3788 13.9545 15.0001 13.9545L11.6162 0.371945C10.2375 0.371945 7.49989 15.0924 7.49989 16.4916V22.8344H4.99984V10.674L12.5 3.06257Z" fill="white"/>
</svg>
